<svg width="400" height="400" viewBox="0 0 400 400" fill="none" xmlns="http://www.w3.org/2000/svg">
<path d="M113.482 399.529C24.2016 405.171 -33.0531 359.91 21.0029 275.232C62.8552 209.656 64.097 190.985 39.3968 138.357C21.853 96.3956 42.1506 -10.5934 222.465 0.851425C387.109 11.2941 414.755 150.778 394.02 248.903C375.413 336.969 215.959 392.996 113.482 399.529Z" fill="#B4EAF7"/>
<path d="M386.635 297.463H7.36182V297.687H386.635V297.463Z" fill="#EBEBEB"/>
<path d="M344.08 308.213H298.643V308.437H344.08V308.213Z" fill="#EBEBEB"/>
<path d="M264.433 304.182H224.533V304.406H264.433V304.182Z" fill="#EBEBEB"/>
<path d="M294.471 308.138H282.107V308.362H294.471V308.138Z" fill="#EBEBEB"/>
<path d="M86.8572 304.107H49.916V304.331H86.8572V304.107Z" fill="#EBEBEB"/>
<path d="M98.0837 304.107H90.1948V304.331H98.0837V304.107Z" fill="#EBEBEB"/>
<path d="M160.891 305.675H135.328V305.899H160.891V305.675Z" fill="#EBEBEB"/>
<path d="M187.137 264.169H40.6621C38.3106 264.169 36.3384 262.228 36.3384 259.914V57.3127C36.3384 54.9985 38.3106 53.0576 40.6621 53.0576H187.137C189.489 53.0576 191.461 54.9985 191.461 57.3127V259.914C191.461 262.228 189.565 264.169 187.137 264.169ZM40.6621 53.2069C38.3865 53.2069 36.4901 54.9985 36.4901 57.3127V259.914C36.4901 262.154 38.3106 264.02 40.6621 264.02H187.137C189.413 264.02 191.309 262.228 191.309 259.914V57.3127C191.309 55.0732 189.489 53.2069 187.137 53.2069H40.6621Z" fill="#EBEBEB"/>
<path d="M351.21 264.169H204.735C202.384 264.169 200.412 262.228 200.412 259.914V57.3127C200.412 54.9985 202.384 53.0576 204.735 53.0576H351.21C353.562 53.0576 355.534 54.9985 355.534 57.3127V259.914C355.534 262.228 353.638 264.169 351.21 264.169ZM204.735 53.2069C202.46 53.2069 200.563 54.9985 200.563 57.3127V259.914C200.563 262.154 202.384 264.02 204.735 264.02H351.21C353.486 264.02 355.382 262.228 355.382 259.914V57.3127C355.382 55.0732 353.562 53.2069 351.21 53.2069H204.735Z" fill="#EBEBEB"/>
<path d="M329.213 85.0828H247.896V208.779H329.213V85.0828Z" fill="#E6E6E6"/>
<path d="M333.233 85.0828H249.793V208.779H333.233V85.0828Z" fill="#F0F0F0"/>
<path d="M329.213 208.779H247.896V211.914H331.109L329.213 208.779Z" fill="#E6E6E6"/>
<path d="M339.908 208.779H256.468L257.909 211.914H341.122L339.908 208.779Z" fill="#F0F0F0"/>
<path d="M327.611 203.219V90.646L255.397 90.646V203.219H327.611Z" fill="#FAFAFA"/>
<path d="M264.357 203.255L287.796 90.6816H303.422L279.907 203.255H264.357Z" fill="white"/>
<path d="M283.245 203.255L306.76 90.6816H312.828L289.313 203.255H283.245Z" fill="white"/>
<path d="M327.618 203.212V90.6392H326.935V203.212H327.618Z" fill="#E6E6E6"/>
<path d="M196.998 331.131C278.229 331.131 344.08 327.354 344.08 322.695C344.08 318.036 278.229 314.26 196.998 314.26C115.767 314.26 49.916 318.036 49.916 322.695C49.916 327.354 115.767 331.131 196.998 331.131Z" fill="#F5F5F5"/>
<path d="M243.573 96.8774C243.573 82.2459 231.512 70.4512 216.721 70.4512C201.929 70.4512 189.868 82.3206 189.868 96.8774C189.868 108.971 198.06 119.123 209.287 122.333L216.797 129.724L224.306 122.333C235.381 119.049 243.573 108.896 243.573 96.8774Z" fill="#8EB1EF"/>
<path opacity="0.6" d="M217.935 79.1106H215.355V114.047H217.935C227.72 114.047 235.684 106.209 235.684 96.5788C235.684 86.9489 227.796 79.1106 217.935 79.1106Z" fill="#FAFAFA"/>
<path d="M227.906 108.951C234.838 102.13 234.838 91.0695 227.906 84.2478C220.974 77.4261 209.736 77.4261 202.804 84.2478C195.872 91.0695 195.872 102.13 202.804 108.951C209.736 115.773 220.974 115.773 227.906 108.951Z" fill="#FAFAFA"/>
<path opacity="0.2" d="M225.444 87.3222C223.016 85.0826 219.679 83.6643 216.038 83.6643C208.452 83.6643 202.308 89.711 202.308 97.2507C202.308 100.759 203.674 103.969 205.873 106.358C203.218 103.895 201.625 100.386 201.625 96.5788C201.625 89.1138 207.77 82.9924 215.355 82.9924C219.375 83.0671 222.941 84.7094 225.444 87.3222Z" fill="#407BFF"/>
<g opacity="0.2">
<path opacity="0.2" d="M219.135 101.716C218.742 102.038 218.346 102.239 217.845 102.451C217.337 102.593 216.79 102.723 216.114 102.723H215.614V103.223V103.671C215.614 103.76 215.542 103.842 215.431 103.842C215.321 103.842 215.249 103.76 215.249 103.671V103.223V102.762L214.789 102.724C213.921 102.653 213.286 102.513 212.733 102.31C212.246 102.103 211.771 101.835 211.438 101.577C211.093 101.235 210.835 100.91 210.643 100.533C210.508 100.267 210.404 100.004 210.329 99.6991L213.048 99.3715C213.079 99.5085 213.116 99.6384 213.158 99.7594C213.238 99.9858 213.349 100.207 213.506 100.383C213.747 100.802 214.169 101.07 214.669 101.234L215.324 101.449V100.759V97.6239V97.232L214.944 97.1384C213.719 96.8371 212.892 96.5546 212.52 96.31L212.482 96.2851L212.44 96.2674C212.028 96.0939 211.639 95.7279 211.285 95.24C210.991 94.836 210.849 94.284 210.849 93.5181C210.849 92.6097 211.173 91.8415 211.838 91.1871C212.472 90.563 213.466 90.2075 214.925 90.1357L215.4 90.1123V89.6363V89.4123C215.4 89.3227 215.472 89.2405 215.583 89.2405C215.694 89.2405 215.766 89.3227 215.766 89.4123V89.6363V90.1097L216.238 90.1355C217.556 90.2076 218.478 90.4925 219.036 90.9737C219.46 91.3938 219.8 91.894 220.024 92.5132L217.577 92.8879C217.456 92.6021 217.316 92.3577 217.147 92.1913C217.006 92.0526 216.808 91.9095 216.604 91.7628C216.539 91.7165 216.475 91.6698 216.411 91.6228L215.614 91.0346V92.0251V94.6379V95.0298L215.995 95.1234C216.89 95.3437 217.641 95.5791 218.235 95.8271C218.836 96.0781 219.243 96.3283 219.48 96.5619L219.489 96.5702L219.497 96.5782C220.221 97.2251 220.545 97.9829 220.545 98.9676C220.545 99.5614 220.411 100.07 220.157 100.508C219.883 100.98 219.542 101.382 219.135 101.716ZM215.249 92.0251V91.2909L214.565 91.5598C214.367 91.6379 214.178 91.72 214.014 91.8063C213.855 91.8896 213.691 91.9912 213.563 92.1166C213.283 92.3925 213.187 92.7671 213.187 93.1449C213.187 93.5066 213.275 93.8655 213.529 94.1375C213.659 94.3125 213.827 94.4394 213.992 94.5365C214.169 94.6411 214.369 94.7273 214.565 94.8045L215.249 95.0734V94.3393V92.0251ZM215.614 100.909V101.568L216.249 101.39C216.76 101.246 217.286 101.069 217.627 100.643C217.925 100.339 218.131 99.9242 218.131 99.4155C218.131 99.2237 218.107 99.0275 218.03 98.8322C217.953 98.6349 217.834 98.4654 217.678 98.3126C217.378 98.0166 216.922 97.7625 216.287 97.5281L215.614 97.2796V97.9971V100.909Z" fill="#8CA9EB" stroke="black"/>
</g>
<path d="M154.293 120.392C156.189 112.181 152.093 107.627 145.721 105.014C139.425 102.401 126.606 103.521 127.819 114.495C128.047 116.809 128.578 118.601 129.337 119.944C126.378 124.125 127.061 130.545 132.75 131.888C139.198 133.381 153.913 131.515 158.313 129.052C155.43 129.649 152.776 126.887 154.293 120.392Z" fill="#263238"/>
<path d="M158.464 128.38C157.63 128.38 156.796 128.081 156.189 127.484C155.278 126.663 153.913 124.573 154.747 119.646C155.961 112.479 152.927 107.702 145.341 105.014C145.266 105.014 145.266 104.94 145.266 104.865C145.266 104.79 145.341 104.79 145.417 104.79C153.079 107.478 156.189 112.33 154.899 119.571C154.065 124.349 155.43 126.439 156.265 127.185C157.099 127.932 158.161 128.231 159.223 127.932C159.299 127.932 159.299 127.932 159.375 128.007C159.375 128.081 159.375 128.081 159.299 128.156C159.071 128.38 158.768 128.38 158.464 128.38Z" fill="#263238"/>
<path d="M131.84 131.44C129.716 131.216 128.047 129.798 127.288 127.633C126.53 125.319 126.833 122.034 129.336 119.795C129.336 119.795 129.412 119.795 129.488 119.795C129.488 119.87 129.488 119.87 129.488 119.944C127.061 122.109 126.681 125.319 127.44 127.633C128.123 129.798 129.716 131.142 131.84 131.291C131.915 131.291 131.915 131.366 131.915 131.366L131.84 131.44Z" fill="#263238"/>
<path d="M160.664 147.266C160.816 149.058 161.044 150.999 161.347 152.865C161.65 154.731 161.878 156.598 162.257 158.464C163.016 162.196 163.926 165.854 165.14 169.288L165.671 170.557L165.898 171.154C165.898 171.154 165.898 171.154 165.822 171.154C165.747 171.08 165.367 170.856 165.291 170.931C165.216 170.931 165.367 171.005 165.595 170.931C166.126 170.856 166.884 170.483 167.567 170.109C168.326 169.736 169.084 169.214 169.843 168.691C171.36 167.646 172.877 166.452 174.318 165.182C175.759 163.913 177.276 162.644 178.642 161.301L181.145 163.391C178.794 166.675 176.139 169.736 173.029 172.573C172.194 173.245 171.36 173.991 170.45 174.588C169.463 175.26 168.477 175.857 167.112 176.305C166.429 176.529 165.519 176.679 164.457 176.604C163.926 176.529 163.319 176.38 162.788 176.081C162.257 175.783 161.726 175.41 161.347 174.962C160.968 174.514 160.664 174.141 160.513 173.693C160.437 173.543 160.437 173.543 160.437 173.469L160.361 173.319L160.209 172.946L159.526 171.528C157.934 167.646 156.72 163.764 155.885 159.733C155.43 157.717 155.051 155.777 154.748 153.761C154.444 151.745 154.217 149.804 154.065 147.64L160.664 147.266Z" fill="#FFC3BD"/>
<path d="M158.161 139.951C160.436 140.548 161.726 155.478 161.726 155.478L155.582 159.061C155.582 159.061 151.865 148.013 152.472 143.235C152.927 139.801 156.416 139.503 158.161 139.951Z" fill="#FFC3BD"/>
<path d="M178.566 160.928L182.055 155.478L184.027 161.674C184.027 161.674 181.145 164.66 178.566 163.914V160.928Z" fill="#FFC3BD"/>
<path d="M187.213 153.612L188.579 158.912L184.103 161.674L182.055 155.478L187.213 153.612Z" fill="#FFC3BD"/>
<path d="M145.114 315.678H151.562L154.368 292.163H145.418L145.114 315.678Z" fill="#FFC3BD"/>
<path d="M104.229 307.018L110.524 308.661L120.158 287.087L111.435 284.623L104.229 307.018Z" fill="#FFC3BD"/>
<path d="M111.51 307.616L104.759 304.779C104.532 304.704 104.228 304.779 104.077 305.003L101.043 309.93C100.739 310.452 100.967 311.124 101.573 311.348C103.925 312.319 105.139 312.617 108.097 313.886C109.917 314.633 112.497 315.977 115 317.022C117.427 318.067 118.717 315.678 117.73 315.006C113.483 312.02 113.331 310.378 112.269 308.437C112.193 308.064 111.89 307.765 111.51 307.616Z" fill="#263238"/>
<path d="M151.789 314.931H144.507C144.204 314.931 144.052 315.081 143.976 315.379L143.142 321.053C143.066 321.65 143.597 322.173 144.204 322.173C146.783 322.098 147.997 321.949 151.183 321.949C153.155 321.949 157.251 322.173 159.982 322.173C162.637 322.173 162.864 319.485 161.726 319.261C156.644 318.216 154.596 316.723 152.927 315.305C152.624 315.081 152.169 314.931 151.789 314.931Z" fill="#263238"/>
<path d="M158.54 139.876C158.54 139.876 161.651 140.921 155.43 178.545C144.963 178.545 134.115 178.545 129.033 178.545C129.488 167.945 129.488 161.45 124.33 139.727C124.33 139.727 129.867 138.532 135.557 138.308C140.032 138.084 143.673 137.935 147.542 138.308C152.7 138.756 158.54 139.876 158.54 139.876Z" fill="#263238"/>
<path d="M136.77 124.946C137.528 128.753 138.287 135.695 135.556 138.234C135.556 138.234 139.728 142.937 147.162 147.042C150.879 141.07 147.541 138.234 147.541 138.234C143.217 137.188 143.369 134.053 144.128 131.142L136.77 124.946Z" fill="#FFC3BD"/>
<path opacity="0.2" d="M139.728 127.484L144.052 131.142C143.9 131.814 143.749 132.56 143.673 133.232C142.004 133.008 139.804 131.217 139.577 129.5C139.577 128.679 139.577 127.857 139.728 127.484Z" fill="black"/>
<path d="M132.674 118.003C134.191 124.199 134.722 126.812 138.515 129.5C144.204 133.456 151.562 130.321 151.941 123.826C152.32 118.003 149.741 108.821 143.066 107.478C136.542 105.985 131.157 111.807 132.674 118.003Z" fill="#FFC3BD"/>
<path d="M155.43 178.545C155.43 178.545 160.589 227.889 160.133 247.447C159.678 267.752 155.506 292.909 155.506 292.909H144.204C144.204 292.909 144.659 268.947 143.901 249.015C143.066 227.292 136.012 178.62 136.012 178.62H155.43V178.545Z" fill="#407BFF"/>
<path d="M143.293 293.955H156.037L157.023 290.745L142.687 290.371L143.293 293.955Z" fill="#263238"/>
<path opacity="0.2" d="M144.052 190.862C150.575 203.702 145.341 227.143 143.066 235.877C141.852 222.813 139.88 206.763 138.363 194.968C139.349 188.324 141.018 184.89 144.052 190.862Z" fill="black"/>
<path d="M148.451 178.545C148.451 178.545 142.459 229.83 137.908 246.327C132.522 265.886 121.599 287.46 121.599 287.46L110.221 284.325C110.221 284.325 116.592 257.973 120.689 247.671C129.412 225.724 121.978 192.952 128.957 178.62H148.451V178.545Z" fill="#407BFF"/>
<path d="M109.538 285.967L121.371 289.252L123.495 286.266L110.372 281.936L109.538 285.967Z" fill="#263238"/>
<path d="M143.293 118.153C143.369 118.675 143.748 119.049 144.052 118.974C144.355 118.899 144.583 118.451 144.507 117.929C144.431 117.406 144.052 117.033 143.749 117.108C143.369 117.182 143.218 117.63 143.293 118.153Z" fill="#263238"/>
<path d="M149.134 117.108C149.21 117.63 149.589 118.003 149.893 117.929C150.196 117.854 150.424 117.406 150.348 116.884C150.272 116.361 149.893 115.988 149.589 116.062C149.21 116.137 149.058 116.585 149.134 117.108Z" fill="#263238"/>
<path d="M149.438 116.137L150.651 115.54C150.575 115.54 150.12 116.66 149.438 116.137Z" fill="#263238"/>
<path d="M147.465 118.153C147.465 118.153 148.755 120.168 149.893 121.064C149.286 121.811 148.148 121.736 148.148 121.736L147.465 118.153Z" fill="#ED847E"/>
<path d="M145.341 124.2C145.645 124.2 145.948 124.2 146.252 124.125C146.328 124.125 146.403 124.05 146.403 123.976C146.403 123.901 146.328 123.826 146.252 123.826C143.976 124.2 142.611 122.856 142.611 122.856C142.535 122.781 142.459 122.781 142.383 122.856C142.307 122.93 142.307 123.005 142.383 123.08C142.383 123.08 143.521 124.2 145.341 124.2Z" fill="#263238"/>
<path d="M140.26 106.209C144.28 107.254 146.631 107.776 147.921 108.971C151.714 112.255 137.68 112.703 138.06 113.226C140.108 120.766 134.95 126.439 131.991 120.168C129.033 113.898 126.909 110.912 131.764 108.299C136.619 105.686 140.26 106.209 140.26 106.209Z" fill="#263238"/>
<path d="M132.37 122.632C132.901 123.826 133.887 124.722 134.949 125.17C136.466 125.767 137.453 124.498 137.149 122.93C136.922 121.587 135.784 119.571 134.191 119.646C132.598 119.72 131.839 121.288 132.37 122.632Z" fill="#FFC3BD"/>
<path d="M141.018 114.719C141.094 114.719 141.17 114.719 141.245 114.644C142.156 113.674 143.293 113.823 143.293 113.823C143.445 113.823 143.597 113.748 143.673 113.599C143.673 113.45 143.597 113.301 143.445 113.226C143.369 113.226 142.004 113.002 140.79 114.196C140.639 114.346 140.714 114.495 140.79 114.644C140.866 114.719 140.942 114.719 141.018 114.719Z" fill="#263238"/>
<path d="M150.575 113.972C150.651 113.972 150.727 113.972 150.803 113.898C150.955 113.748 150.955 113.599 150.803 113.45C149.589 112.255 148.224 112.479 148.148 112.479C147.996 112.479 147.845 112.703 147.921 112.853C147.921 113.002 148.148 113.151 148.3 113.076C148.376 113.076 149.438 112.927 150.348 113.823C150.424 113.898 150.5 113.972 150.575 113.972Z" fill="#263238"/>
<path d="M127.667 149.058C126.378 152.417 125.088 156 123.95 159.434C122.889 162.943 121.902 166.452 121.371 169.96C121.296 170.408 121.22 170.856 121.22 171.229L121.144 171.901V172.2C121.068 172.274 121.296 172.946 121.675 173.618C122.433 174.887 123.571 176.305 124.785 177.649C127.212 180.336 130.019 182.875 132.825 185.413L130.929 188.025C127.516 186.085 124.33 183.845 121.22 181.232C119.703 179.889 118.186 178.545 116.896 176.604C116.213 175.634 115.531 174.588 115.227 172.797C115.227 172.573 115.151 172.349 115.151 172.05C115.151 171.901 115.151 171.901 115.151 171.826V171.602V170.856C115.151 170.333 115.227 169.811 115.227 169.288C115.606 165.257 116.517 161.375 117.579 157.643C118.641 153.91 119.93 150.252 121.447 146.594L127.667 149.058Z" fill="#FFC3BD"/>
<path d="M124.33 139.727C121.751 140.772 118.489 154.732 118.489 154.732L124.027 159.211C124.027 159.211 129.185 148.834 129.412 143.982C129.64 140.324 126.682 138.831 124.33 139.727Z" fill="#FFC3BD"/>
<path d="M114.469 309.631C114.696 309.557 114.848 309.333 114.924 309.034C115 308.81 114.924 308.586 114.848 308.511C114.317 307.914 111.966 308.288 111.738 308.362C111.662 308.362 111.662 308.437 111.586 308.511C111.586 308.586 111.586 308.661 111.662 308.661C112.345 309.183 113.635 310.004 114.393 309.706C114.393 309.631 114.469 309.631 114.469 309.631ZM112.117 308.586C113.028 308.437 114.317 308.362 114.621 308.735C114.621 308.81 114.696 308.81 114.696 308.959C114.621 309.183 114.545 309.333 114.317 309.407C113.862 309.557 113.104 309.258 112.117 308.586Z" fill="#407BFF"/>
<path d="M112.8 308.287C113.483 307.989 114.165 307.466 114.241 307.018C114.241 306.869 114.241 306.645 113.938 306.421C113.71 306.272 113.483 306.272 113.255 306.346C112.345 306.645 111.586 308.362 111.586 308.437C111.586 308.511 111.586 308.511 111.586 308.586C111.586 308.661 111.662 308.661 111.738 308.661C111.966 308.661 112.421 308.511 112.8 308.287ZM113.255 306.72H113.331C113.483 306.645 113.635 306.72 113.786 306.794C113.938 306.869 113.938 307.018 113.938 307.093C113.862 307.541 112.724 308.213 111.966 308.437C112.269 307.765 112.724 306.944 113.255 306.72Z" fill="#407BFF"/>
<path d="M154.292 316.051C154.975 316.051 155.506 315.976 155.885 315.678C156.113 315.454 156.189 315.23 156.189 314.931C156.189 314.782 156.113 314.633 155.961 314.558C155.127 314.11 152.548 315.454 152.244 315.603C152.168 315.603 152.168 315.678 152.168 315.752C152.168 315.827 152.244 315.902 152.32 315.902C152.775 315.976 153.534 316.051 154.292 316.051ZM155.43 314.707C155.582 314.707 155.658 314.707 155.734 314.782C155.809 314.782 155.809 314.857 155.809 314.931C155.809 315.155 155.734 315.305 155.658 315.454C155.278 315.827 154.217 315.902 152.775 315.603C153.61 315.23 154.823 314.707 155.43 314.707Z" fill="#407BFF"/>
<path d="M152.244 315.827C152.244 315.827 152.32 315.827 152.244 315.827C153.079 315.454 154.596 314.11 154.52 313.364C154.52 313.214 154.368 312.99 153.913 312.916C153.61 312.916 153.306 312.99 153.079 313.214C152.244 313.886 152.093 315.603 152.093 315.678C152.093 315.752 152.093 315.752 152.169 315.827H152.244ZM153.762 313.214H153.837C154.141 313.214 154.141 313.364 154.141 313.364C154.217 313.812 153.155 314.857 152.396 315.379C152.472 314.857 152.7 313.812 153.231 313.438C153.458 313.289 153.61 313.214 153.762 313.214Z" fill="#407BFF"/>
<path d="M128.653 177.052L127.971 179.366C127.895 179.515 128.122 179.739 128.426 179.739H155.658C155.885 179.739 156.113 179.59 156.113 179.441L156.34 177.126C156.34 176.977 156.113 176.828 155.885 176.828H129.109C128.881 176.828 128.653 176.903 128.653 177.052Z" fill="#407BFF"/>
<path opacity="0.8" d="M128.653 177.052L127.971 179.366C127.895 179.515 128.122 179.739 128.426 179.739H155.658C155.885 179.739 156.113 179.59 156.113 179.441L156.34 177.126C156.34 176.977 156.113 176.828 155.885 176.828H129.109C128.881 176.828 128.653 176.903 128.653 177.052Z" fill="white"/>
<path d="M132.219 179.963H131.536C131.384 179.963 131.309 179.889 131.309 179.814L131.612 176.753C131.612 176.679 131.764 176.604 131.915 176.604H132.598C132.75 176.604 132.826 176.679 132.826 176.753L132.522 179.814C132.446 179.889 132.371 179.963 132.219 179.963Z" fill="#407BFF"/>
<path d="M153.534 179.963H152.851C152.699 179.963 152.624 179.889 152.624 179.814L152.927 176.753C152.927 176.679 153.079 176.604 153.23 176.604H153.913C154.065 176.604 154.141 176.679 154.141 176.753L153.837 179.814C153.837 179.889 153.686 179.963 153.534 179.963Z" fill="#407BFF"/>
<path d="M142.914 179.963H142.231C142.08 179.963 142.004 179.889 142.004 179.814L142.307 176.753C142.307 176.679 142.459 176.604 142.611 176.604H143.293C143.445 176.604 143.521 176.679 143.521 176.753L143.218 179.814C143.142 179.889 143.066 179.963 142.914 179.963Z" fill="#407BFF"/>
<path d="M130.474 223.111L162.788 223.634L157.402 178.545L158.919 158.315L155.278 154.657C155.658 141.966 153.761 138.831 153.761 138.831L151.182 138.458C153.458 141.742 153.079 150.85 152.699 153.985C147.314 153.015 139.728 153.985 139.728 153.985C139.349 144.803 133.508 138.084 133.508 138.084C133.508 138.084 132.825 138.159 131.233 138.458C136.391 144.28 137.453 154.657 137.453 154.657L131.915 159.584L132.674 164.361C132.143 164.511 130.777 164.809 128.805 164.585L128.957 166.676C128.957 166.676 131.157 167.198 132.977 166.302L134.874 178.321L130.474 223.111Z" fill="white"/>
<path d="M131.991 184.741L138.97 185.338L134.267 189.966C134.267 189.966 130.246 188.847 129.715 186.234L131.991 184.741Z" fill="#FFC3BD"/>
<path d="M143.066 188.996L138.894 192.654L133.356 189.593L139.046 185.338L143.066 188.996Z" fill="#FFC3BD"/>
<path d="M143.597 117.182L144.81 116.585C144.735 116.585 144.279 117.63 143.597 117.182Z" fill="#263238"/>
<path d="M216.872 189.519H93.9878V322.77H222.41V194.968C222.41 191.907 219.906 189.519 216.872 189.519Z" fill="#6D9FF7"/>
<path opacity="0.3" d="M124.026 189.519H93.9878V322.77H124.026V189.519Z" fill="black"/>
<path opacity="0.3" d="M222.41 193.624H93.9878V197.73H222.41V193.624Z" fill="black"/>
<path d="M219.148 189.519H93.9878V195.043H224.761C224.761 191.982 222.258 189.519 219.148 189.519Z" fill="#263238"/>
<path d="M185.772 171.005H166.884C156.492 171.005 148.072 179.291 148.072 189.518H185.772V171.005Z" fill="#407BFF"/>
<path opacity="0.5" d="M185.772 171.005H166.884C156.492 171.005 148.072 179.291 148.072 189.518H185.772V171.005Z" fill="white"/>
<path d="M185.772 189.518H207.77V171.677C207.77 171.304 207.466 171.005 207.087 171.005H185.772V189.518Z" fill="#407BFF"/>
<path opacity="0.7" d="M185.772 189.518H207.77V171.677C207.77 171.304 207.466 171.005 207.087 171.005H185.772V189.518Z" fill="white"/>
<path d="M180.083 168.542H203.598C204.963 168.542 206.101 169.662 206.101 171.005H177.58C177.58 169.662 178.717 168.542 180.083 168.542Z" fill="#407BFF"/>
<path opacity="0.3" d="M180.083 168.542C179.4 168.542 178.717 168.84 178.338 169.288C177.883 169.736 177.58 170.333 177.58 171.08H185.317C185.317 170.408 185.62 169.736 186.075 169.288C186.53 168.84 187.137 168.542 187.896 168.542H180.083Z" fill="black"/>
<path d="M211.866 153.612L219.755 163.54C220.058 163.913 220.665 163.988 221.044 163.689L225.975 159.882C226.354 159.584 226.43 158.986 226.127 158.613L218.238 148.685C217.934 148.311 217.327 148.237 216.948 148.535L212.018 152.342C211.638 152.641 211.563 153.238 211.866 153.612Z" fill="#407BFF"/>
<path d="M214.572 150.368L223.587 161.72L225.261 160.433L216.246 149.081L214.572 150.368Z" fill="#263238"/>
<path d="M213.151 153.307L216 156.895L217.674 155.608L214.825 152.02L213.151 153.307Z" fill="white"/>
<path d="M296.216 143.833C296.444 144.131 296.52 144.28 296.596 144.43L296.899 144.952C297.127 145.326 297.278 145.699 297.506 146.072C297.885 146.819 298.264 147.565 298.568 148.312C299.251 149.805 299.782 151.298 300.237 152.865C301.147 155.926 301.754 159.061 302.057 162.197L302.133 162.794C302.133 162.868 302.133 163.018 302.133 163.167V163.54C302.133 164.063 302.133 164.585 302.057 165.108C301.906 166.078 301.678 167.049 301.299 167.87C300.616 169.587 299.706 171.005 298.644 172.349C296.596 174.962 294.244 177.052 291.589 178.918L289.465 176.529C291.362 174.365 293.182 172.05 294.472 169.662C295.154 168.467 295.685 167.273 295.989 166.153C296.141 165.556 296.216 165.033 296.216 164.585C296.216 164.361 296.216 164.137 296.216 163.913V163.764C296.216 163.69 296.216 163.69 296.216 163.54L296.141 163.018C295.61 160.181 295.003 157.494 294.092 154.806C293.637 153.462 293.106 152.193 292.575 150.924C292.272 150.252 291.969 149.655 291.665 149.058L291.21 148.162L290.982 147.714L290.755 147.416L296.216 143.833Z" fill="#FF8B7B"/>
<path d="M289.162 179.067L291.892 184.741L294.092 179.889C294.092 179.889 292.196 175.708 289.541 176.081L289.162 179.067Z" fill="#FF8B7B"/>
<path d="M296.216 184.741L298.416 181.232L294.092 179.963L291.893 184.741H296.216Z" fill="#FF8B7B"/>
<path d="M281.501 316.723C282.107 316.723 282.714 316.574 283.169 316.499C283.245 316.499 283.245 316.424 283.245 316.35C283.245 316.275 283.245 316.2 283.169 316.2C282.942 316.051 281.045 314.857 280.287 315.155C280.135 315.23 280.059 315.304 279.984 315.603C279.908 315.902 279.984 316.2 280.211 316.424C280.59 316.648 281.045 316.723 281.501 316.723ZM282.79 316.275C281.652 316.499 280.818 316.424 280.515 316.2C280.363 316.051 280.363 315.902 280.363 315.678C280.363 315.528 280.439 315.528 280.515 315.454C280.818 315.304 281.956 315.827 282.79 316.275Z" fill="#407BFF"/>
<path d="M283.169 316.499C283.321 316.424 283.321 316.424 283.321 316.35C283.321 316.275 283.321 314.484 282.639 313.886C282.487 313.737 282.259 313.662 282.032 313.662C281.652 313.737 281.577 313.961 281.501 314.11C281.273 314.782 282.487 316.126 283.169 316.499C283.094 316.499 283.094 316.499 283.169 316.499ZM282.032 313.961C282.183 313.961 282.259 314.036 282.335 314.11C282.714 314.484 282.866 315.454 282.942 316.051C282.335 315.603 281.652 314.558 281.728 314.11C281.728 314.11 281.804 314.036 282.032 313.961Z" fill="#407BFF"/>
<path d="M241.98 313.961C242.056 313.961 242.056 313.961 242.132 313.886C242.132 313.812 242.132 313.737 242.132 313.737C241.904 313.513 240.16 311.423 239.25 311.423H239.174C239.022 311.423 238.87 311.497 238.794 311.721C238.643 312.02 238.643 312.244 238.794 312.468C239.098 313.289 240.918 313.737 241.98 313.961C241.904 313.961 241.904 313.961 241.98 313.961ZM239.174 311.721C239.705 311.721 240.767 312.767 241.525 313.588C240.16 313.289 239.174 312.841 238.946 312.393C238.87 312.244 238.87 312.095 238.946 311.871C239.022 311.796 239.098 311.721 239.174 311.721Z" fill="#407BFF"/>
<path d="M241.98 313.961C242.056 313.961 242.132 313.886 242.132 313.886C242.132 313.811 242.663 312.244 242.208 311.273C242.056 310.975 241.829 310.825 241.525 310.751C241.146 310.602 240.918 310.751 240.842 310.9C240.463 311.497 241.298 313.289 241.904 313.886C241.904 313.961 241.904 313.961 241.98 313.961ZM241.222 310.975C241.298 310.975 241.298 310.975 241.373 310.975C241.601 311.049 241.753 311.199 241.829 311.348C242.132 311.945 241.98 312.99 241.829 313.438C241.298 312.692 240.767 311.348 240.994 310.975C241.07 311.049 241.07 310.975 241.222 310.975Z" fill="#407BFF"/>
<path d="M282.714 121.96C281.956 125.692 280.287 133.755 282.942 136.218C282.942 136.218 281.88 139.951 274.901 139.951C267.164 139.951 271.184 136.218 271.184 136.218C275.356 135.248 275.28 132.187 274.522 129.276L282.714 121.96Z" fill="#FF8B7B"/>
<path d="M269.819 113.226C269.895 113.226 269.895 113.226 269.971 113.226C270.122 113.151 270.198 113.002 270.122 112.853C269.364 111.36 267.998 111.21 267.923 111.21C267.771 111.21 267.619 111.285 267.619 111.434C267.619 111.583 267.695 111.733 267.847 111.733C267.923 111.733 268.985 111.882 269.591 113.076C269.667 113.151 269.743 113.226 269.819 113.226Z" fill="#263238"/>
<path d="M267.543 116.51C267.543 116.51 266.405 118.526 265.343 119.497C265.95 120.168 267.088 120.019 267.088 120.019L267.543 116.51Z" fill="#FF5652"/>
<path d="M268.15 115.689C268.074 116.212 267.771 116.585 267.467 116.51C267.164 116.436 266.936 116.062 267.012 115.54C267.088 115.017 267.392 114.644 267.695 114.719C267.998 114.719 268.15 115.167 268.15 115.689Z" fill="#263238"/>
<path d="M267.771 114.719L266.557 114.196C266.633 114.271 267.088 115.241 267.771 114.719Z" fill="#263238"/>
<path d="M248.655 316.35L242.511 314.931L245.394 300.748L251.614 302.092L248.655 316.35Z" fill="#FF8B7B"/>
<path d="M290.527 316.35H284.155L284.686 301.867H291.058L290.527 316.35Z" fill="#FF8B7B"/>
<path d="M283.701 315.678H290.831C291.059 315.678 291.286 315.827 291.362 316.126L292.196 321.65C292.272 322.247 291.741 322.769 291.21 322.769C288.707 322.695 287.493 322.62 284.383 322.62C282.487 322.62 279.604 322.844 276.95 322.844C274.37 322.844 274.143 320.231 275.281 320.007C280.287 318.962 281.046 317.469 282.714 316.126C282.942 315.752 283.321 315.678 283.701 315.678Z" fill="#263238"/>
<path d="M242.587 313.289L249.187 315.976C249.414 316.051 249.566 316.35 249.49 316.574L248.049 322.023C247.897 322.62 247.214 322.919 246.683 322.695C244.408 321.724 243.346 321.127 240.463 319.933C238.643 319.186 234.926 317.843 232.423 316.872C229.995 315.902 230.83 313.438 231.968 313.588C236.974 314.483 239.326 313.886 241.449 313.214C241.829 313.14 242.284 313.14 242.587 313.289Z" fill="#263238"/>
<path opacity="0.2" d="M245.394 300.748L243.801 308.288L250.097 309.482L251.614 302.092L245.394 300.748Z" fill="black"/>
<path opacity="0.2" d="M291.058 301.868H284.687L284.459 309.333H290.755L291.058 301.868Z" fill="black"/>
<path d="M293.865 137.711C296.52 138.308 299.326 147.64 299.326 147.64L291.893 155.478C291.893 155.478 285.673 146.669 286.962 143.459C288.252 140.025 290.755 137.039 293.865 137.711Z" fill="#407BFF"/>
<path opacity="0.4" d="M289.693 143.608C288.328 142.414 287.493 142.787 286.811 143.683C286.204 146.445 289.769 152.268 291.21 154.507C291.969 151.895 292.727 146.37 289.693 143.608Z" fill="black"/>
<path d="M260.489 137.86C260.489 137.86 257.455 138.906 263.523 175.634C273.764 175.634 284.383 175.634 289.314 175.634C288.859 165.332 288.859 158.912 293.865 137.711C293.865 137.711 288.479 136.517 282.942 136.293C278.618 136.069 275.053 135.92 271.26 136.293C266.178 136.741 260.489 137.86 260.489 137.86Z" fill="#3E78DD"/>
<path d="M267.771 135.472C268.757 134.949 276.797 133.381 282.79 133.605C286.203 133.755 288.176 134.202 289.617 135.024C291.134 135.845 289.086 140.324 288.024 140.921C288.707 142.563 286.355 144.803 284.99 145.848C284.61 147.416 278.921 149.058 275.129 145.773C272.246 143.235 264.888 136.965 267.771 135.472Z" fill="#263238"/>
<path opacity="0.4" d="M260.261 151.969C260.413 153.761 260.641 155.777 260.944 158.016C263.068 156.15 264.813 150.85 264.13 147.714C262.613 148.759 261.247 150.476 260.261 151.969Z" fill="black"/>
<path d="M262.992 146.371C261.551 149.954 259.958 153.313 258.213 156.672C257.303 158.389 256.392 160.032 255.406 161.674C254.42 163.316 253.282 164.959 251.993 166.526L251.462 167.123L251.31 167.273L251.083 167.497C250.931 167.646 250.779 167.795 250.628 167.945C250.021 168.467 249.262 168.915 248.504 169.214C246.986 169.736 245.621 169.736 244.407 169.587C241.98 169.288 240.084 168.392 238.263 167.571C234.698 165.705 231.588 163.466 228.706 160.927L230.678 158.389C232.195 159.285 233.864 160.181 235.457 161.002C237.05 161.823 238.718 162.57 240.311 163.167C241.904 163.764 243.573 164.212 244.938 164.287C245.621 164.287 246.152 164.212 246.38 164.063C246.531 163.988 246.607 163.913 246.607 163.839L247.138 163.092C249.035 160.405 250.703 157.12 252.296 153.91C253.889 150.7 255.406 147.341 256.772 144.056L262.992 146.371Z" fill="#FF8B7B"/>
<path d="M260.489 137.86C257.303 138.607 253.435 147.117 253.435 147.117L259.958 156.598C259.958 156.598 268.681 145.773 267.619 142.489C266.557 139.055 264.282 136.964 260.489 137.86Z" fill="#407BFF"/>
<path d="M230.299 161.301L224.306 161.375L226.051 156.299C226.051 156.299 230.754 156.896 232.271 159.061L230.299 161.301Z" fill="#FF8B7B"/>
<path d="M219.755 160.778L220.893 156.299H225.975L224.23 161.375L219.755 160.778Z" fill="#FF8B7B"/>
<path d="M285.445 116.062C284.307 122.184 283.928 124.797 280.363 127.559C275.053 131.739 267.695 128.977 266.937 122.706C266.254 117.033 268.302 108 274.674 106.283C281.046 104.566 286.583 109.941 285.445 116.062Z" fill="#FF8B7B"/>
<path d="M272.019 115.913C270.805 117.481 262.157 127.26 267.088 130.993C282.562 129.798 286.962 135.098 291.21 127.559C295.533 120.019 296.14 107.104 284.231 104.94C272.322 102.775 265.798 105.462 272.019 115.913Z" fill="#263238"/>
<path d="M269.591 115.615C268.681 116.51 268.302 117.779 268.302 118.825C268.302 120.392 269.895 120.691 271.108 119.87C272.246 119.123 273.612 117.406 272.929 115.988C272.322 114.644 270.653 114.569 269.591 115.615Z" fill="#FF8B7B"/>
<path d="M270.35 175.634C270.35 175.634 274.066 218.558 277.859 242.744C280.969 262.303 283.397 307.914 283.397 307.914H292.044C292.044 307.914 295.154 263.646 293.561 244.312C289.617 195.416 298.416 191.459 289.313 175.634H270.35Z" fill="#263238"/>
<path opacity="0.4" d="M277.556 189.967C275.281 193.177 273.763 197.058 272.777 201.015C273.536 208.256 274.37 216.244 275.356 223.932C277.708 217.513 280.363 204.523 277.556 189.967Z" fill="black"/>
<path d="M263.523 175.633C263.523 175.633 256.393 223.783 253.814 242.67C251.235 262.377 243.573 306.421 243.573 306.421L252.069 307.69C252.069 307.69 266.557 265.811 269.212 246.477C272.17 225.425 283.245 175.559 283.245 175.559H263.523V175.633Z" fill="#263238"/>
<path d="M242.284 306.496L253.207 308.288L254.42 304.256L242.815 302.315L242.284 306.496Z" fill="#407BFF"/>
<path d="M282.183 308.063H293.182L293.789 304.256L282.107 303.883L282.183 308.063Z" fill="#407BFF"/>
<path d="M289.693 174.14L290.831 176.38C290.907 176.529 290.679 176.753 290.376 176.753H263.295C263.068 176.753 262.84 176.604 262.84 176.529L262.613 174.29C262.613 174.14 262.765 173.991 263.068 173.991H289.162C289.465 173.917 289.617 173.991 289.693 174.14Z" fill="#EBEBEB"/>
<path d="M286.204 176.977H286.886C287.038 176.977 287.114 176.903 287.114 176.828L286.81 173.842C286.81 173.767 286.659 173.693 286.507 173.693H285.824C285.673 173.693 285.597 173.767 285.597 173.842L285.9 176.828C285.9 176.903 286.052 176.977 286.204 176.977Z" fill="#263238"/>
<path d="M269.212 176.977H269.895C270.047 176.977 270.123 176.903 270.123 176.828L269.819 173.842C269.819 173.767 269.667 173.693 269.516 173.693H268.833C268.681 173.693 268.605 173.767 268.605 173.842L268.909 176.828C268.985 176.903 269.061 176.977 269.212 176.977Z" fill="#263238"/>
</svg>