<svg width="110" height="86" viewBox="0 0 110 86" fill="none" xmlns="http://www.w3.org/2000/svg">
              <g clip-path="url(#clip0)">
              <path d="M107.761 84.7929V85.0166H107.966C108.012 85.0166 108.051 85.0058 108.079 84.9884C108.105 84.971 108.12 84.9406 108.12 84.9037C108.12 84.8667 108.105 84.8385 108.079 84.8211C108.051 84.8016 108.012 84.7929 107.966 84.7929H107.761ZM107.968 84.6365C108.074 84.6365 108.156 84.6604 108.215 84.7082C108.273 84.756 108.301 84.8211 108.301 84.9037C108.301 84.9732 108.28 85.0297 108.232 85.0753C108.187 85.1187 108.122 85.147 108.035 85.1578L108.308 85.4728H108.096L107.843 85.16H107.761V85.4728H107.584V84.6365H107.968ZM107.914 85.7617C108.012 85.7617 108.102 85.7421 108.185 85.7052C108.269 85.6683 108.342 85.6183 108.405 85.5553C108.468 85.4923 108.517 85.4185 108.554 85.3316C108.589 85.2469 108.608 85.1556 108.608 85.0579C108.608 84.9601 108.589 84.8689 108.554 84.7842C108.517 84.6995 108.468 84.6235 108.405 84.5605C108.342 84.4975 108.269 84.4475 108.185 84.4106C108.102 84.3758 108.012 84.3585 107.914 84.3585C107.817 84.3585 107.724 84.3758 107.64 84.4106C107.553 84.4475 107.478 84.4975 107.415 84.5605C107.352 84.6235 107.303 84.6995 107.268 84.7842C107.231 84.8689 107.214 84.9601 107.214 85.0579C107.214 85.1556 107.231 85.2469 107.268 85.3316C107.303 85.4185 107.352 85.4923 107.415 85.5553C107.478 85.6183 107.553 85.6683 107.64 85.7052C107.724 85.7421 107.817 85.7617 107.914 85.7617ZM107.914 84.1564C108.042 84.1564 108.159 84.1803 108.271 84.2281C108.381 84.2737 108.476 84.3389 108.561 84.4214C108.643 84.5018 108.708 84.5974 108.755 84.7082C108.803 84.8168 108.826 84.9341 108.826 85.0579C108.826 85.1817 108.803 85.299 108.755 85.4076C108.708 85.5162 108.643 85.6118 108.561 85.6943C108.476 85.7747 108.381 85.8399 108.271 85.8877C108.159 85.9355 108.042 85.9594 107.914 85.9594C107.785 85.9594 107.666 85.9355 107.553 85.8877C107.441 85.8399 107.344 85.7747 107.262 85.6943C107.18 85.6118 107.115 85.5162 107.067 85.4076C107.02 85.299 106.996 85.1817 106.996 85.0579C106.996 84.9341 107.02 84.8168 107.067 84.7082C107.115 84.5974 107.18 84.5018 107.262 84.4214C107.344 84.3389 107.441 84.2737 107.553 84.2281C107.666 84.1803 107.785 84.1564 107.914 84.1564ZM23.7083 80.9351C23.7083 79.3407 24.7478 78.0309 26.4466 78.0309C28.0697 78.0309 29.1655 79.2842 29.1655 80.9351C29.1655 82.586 28.0697 83.8393 26.4466 83.8393C24.7478 83.8393 23.7083 82.5295 23.7083 80.9351ZM31.0156 80.9351V76.3996H29.0531V77.5009C28.4307 76.6841 27.4862 76.1715 26.2024 76.1715C23.6715 76.1715 21.6875 78.1656 21.6875 80.9351C21.6875 83.7068 23.6715 85.6987 26.2024 85.6987C27.4862 85.6987 28.4307 85.1861 29.0531 84.3693V85.4706H31.0156V80.9351ZM97.3327 80.9351C97.3327 79.3407 98.3723 78.0309 100.071 78.0309C101.696 78.0309 102.79 79.2842 102.79 80.9351C102.79 82.586 101.696 83.8393 100.071 83.8393C98.3723 83.8393 97.3327 82.5295 97.3327 80.9351ZM104.642 80.9351V72.7568H102.678V77.5009C102.055 76.6841 101.111 76.1715 99.8268 76.1715C97.296 76.1715 95.3119 78.1656 95.3119 80.9351C95.3119 83.7068 97.296 85.6987 99.8268 85.6987C101.111 85.6987 102.055 85.1861 102.678 84.3693V85.4706H104.642V80.9351ZM55.3755 77.9375C56.6399 77.9375 57.4525 78.7347 57.66 80.1379H52.9765C53.1861 78.8281 53.9772 77.9375 55.3755 77.9375ZM55.4144 76.1715C52.769 76.1715 50.9189 78.1069 50.9189 80.9351C50.9189 83.8198 52.8447 85.6987 55.5463 85.6987C56.9057 85.6987 58.1506 85.3577 59.2464 84.428L58.2846 82.9661C57.5282 83.5721 56.5642 83.9153 55.6587 83.9153C54.3943 83.9153 53.2423 83.3267 52.9592 81.6932H59.6614C59.6808 81.4477 59.7003 81.2001 59.7003 80.9351C59.6808 78.1069 57.9431 76.1715 55.4144 76.1715ZM79.1108 80.9351C79.1108 79.3407 80.1504 78.0309 81.8492 78.0309C83.4723 78.0309 84.5681 79.2842 84.5681 80.9351C84.5681 82.586 83.4723 83.8393 81.8492 83.8393C80.1504 83.8393 79.1108 82.5295 79.1108 80.9351ZM86.4182 80.9351V76.3996H84.4557V77.5009C83.8311 76.6841 82.8888 76.1715 81.605 76.1715C79.0741 76.1715 77.09 78.1656 77.09 80.9351C77.09 83.7068 79.0741 85.6987 81.605 85.6987C82.8888 85.6987 83.8311 85.1861 84.4557 84.3693V85.4706H86.4182V80.9351ZM68.0277 80.9351C68.0277 83.6873 69.934 85.6987 72.8431 85.6987C74.2025 85.6987 75.1081 85.3946 76.0894 84.6169L75.147 83.0226C74.41 83.5547 73.6363 83.8393 72.7847 83.8393C71.2178 83.8198 70.0658 82.6815 70.0658 80.9351C70.0658 79.1887 71.2178 78.0504 72.7847 78.0309C73.6363 78.0309 74.41 78.3155 75.147 78.8476L76.0894 77.2533C75.1081 76.4756 74.2025 76.1715 72.8431 76.1715C69.934 76.1715 68.0277 78.1829 68.0277 80.9351ZM93.33 76.1715C92.1975 76.1715 91.4605 76.7037 90.9504 77.5009V76.3996H89.0052V85.4706H90.9699V80.3855C90.9699 78.8846 91.6118 78.0504 92.8956 78.0504C93.2932 78.0504 93.7082 78.1069 94.1232 78.2785L94.7283 76.4191C94.2939 76.2475 93.7277 76.1715 93.33 76.1715ZM40.722 77.1208C39.7775 76.4952 38.4764 76.1715 37.0413 76.1715C34.7546 76.1715 33.2828 77.2728 33.2828 79.0757C33.2828 80.555 34.3786 81.4673 36.3972 81.7518L37.3244 81.8843C38.4007 82.0364 38.9086 82.3209 38.9086 82.8336C38.9086 83.5352 38.1911 83.9349 36.8511 83.9349C35.4916 83.9349 34.5104 83.4983 33.849 82.9856L32.924 84.5214C34.0003 85.3186 35.3598 85.6987 36.8316 85.6987C39.4382 85.6987 40.9489 84.4649 40.9489 82.738C40.9489 81.1436 39.7602 80.3095 37.7956 80.025L36.8705 79.8903C36.0211 79.7773 35.3403 79.6079 35.3403 78.9997C35.3403 78.335 35.9822 77.9375 37.0586 77.9375C38.2105 77.9375 39.3258 78.3741 39.8726 78.7151L40.722 77.1208ZM66.0437 76.1715C64.9111 76.1715 64.1741 76.7037 63.6662 77.5009V76.3996H61.7211V85.4706H63.6835V80.3855C63.6835 78.8846 64.3254 78.0504 65.6092 78.0504C66.0069 78.0504 66.4219 78.1069 66.8369 78.2785L67.442 76.4191C67.0076 76.2475 66.4413 76.1715 66.0437 76.1715ZM49.2958 76.3996H46.0863V73.6474H44.1022V76.3996H42.2716V78.2025H44.1022V82.3405C44.1022 84.4453 44.9149 85.6987 47.2361 85.6987C48.0876 85.6987 49.0689 85.4337 49.6913 84.9971L49.1251 83.3071C48.5394 83.6482 47.8975 83.8198 47.3874 83.8198C46.4062 83.8198 46.0863 83.2115 46.0863 82.3014V78.2025H49.2958V76.3996ZM19.9519 85.4706V79.7773C19.9519 77.6334 18.5925 76.1911 16.4009 76.1715C15.249 76.152 14.0603 76.5125 13.2282 77.7854C12.6057 76.7797 11.6245 76.1715 10.2456 76.1715C9.28163 76.1715 8.33931 76.4561 7.60231 77.5183V76.3996H5.6377V85.4706H7.6196V80.442C7.6196 78.8672 8.48844 78.0309 9.8306 78.0309C11.1339 78.0309 11.7931 78.8846 11.7931 80.4225V85.4706H13.7771V80.442C13.7771 78.8672 14.6827 78.0309 15.986 78.0309C17.326 78.0309 17.9679 78.8846 17.9679 80.4225V85.4706H19.9519Z" fill="#231F20"/>
              <path d="M108.971 55.3033V53.9783H108.628L108.23 54.8885L107.834 53.9783H107.488V55.3033H107.733V54.3041L108.104 55.1665H108.357L108.729 54.302V55.3033H108.971ZM106.79 55.3033V54.2042H107.231V53.9805H106.107V54.2042H106.548V55.3033H106.79Z" fill="#F79410"/>
              <path d="M69.8948 61.0031H40.1519V7.28082H69.8948V61.0031Z" fill="#FF5F00"/>
              <path d="M42.0575 34.1377C42.0575 23.2399 47.1344 13.5324 55.0404 7.27655C49.259 2.70194 41.9624 -0.0284926 34.0326 -0.0284926C15.2597 -0.0284926 0.0419922 15.268 0.0419922 34.1377C0.0419922 53.0075 15.2597 68.304 34.0326 68.304C41.9624 68.304 49.259 65.5735 55.0404 60.9989C47.1344 54.743 42.0575 45.0356 42.0575 34.1377Z" fill="#EB001B"/>
              <path d="M110.009 34.1377C110.009 53.0075 94.7912 68.304 76.0182 68.304C68.0884 68.304 60.7919 65.5735 55.0083 60.9989C62.9165 54.743 67.9933 45.0356 67.9933 34.1377C67.9933 23.2399 62.9165 13.5324 55.0083 7.27655C60.7919 2.70194 68.0884 -0.0284926 76.0182 -0.0284926C94.7912 -0.0284926 110.009 15.268 110.009 34.1377Z" fill="#F79E1B"/>
              </g>
              <defs>
              <clipPath id="clip0">
              <rect width="110" height="86" fill="white"/>
              </clipPath>
              </defs>
              </svg>
